<?xml version="1.0" encoding="UTF-8"?>
<!DOCTYPE svg PUBLIC "-//W3C//DTD SVG 1.1//EN" "http://www.w3.org/Graphics/SVG/1.1/DTD/svg11.dtd">
<svg xmlns="http://www.w3.org/2000/svg" version="1.1" width="500px" height="500px" style="shape-rendering:geometricPrecision; text-rendering:geometricPrecision; image-rendering:optimizeQuality; fill-rule:evenodd; clip-rule:evenodd" xmlns:xlink="http://www.w3.org/1999/xlink">
<g><path style="opacity:0.004" fill="#fefffe" d="M 450.5,2.5 C 451.833,3.16667 451.833,3.16667 450.5,2.5 Z"/></g>
<g><path style="opacity:0.004" fill="#fefffe" d="M 237.5,5.5 C 238.833,6.16667 238.833,6.16667 237.5,5.5 Z"/></g>
<g><path style="opacity:0.004" fill="#fefffe" d="M 401.5,6.5 C 402.833,7.16667 402.833,7.16667 401.5,6.5 Z"/></g>
<g><path style="opacity:0.004" fill="#fefffe" d="M 252.5,11.5 C 253.525,11.8966 253.692,12.5632 253,13.5C 252.536,12.9056 252.369,12.2389 252.5,11.5 Z"/></g>
<g><path style="opacity:0.004" fill="#fefffe" d="M 80.5,13.5 C 81.8333,14.1667 81.8333,14.1667 80.5,13.5 Z"/></g>
<g><path style="opacity:0.004" fill="#fefffe" d="M 195.5,22.5 C 196.833,23.1667 196.833,23.1667 195.5,22.5 Z"/></g>
<g><path style="opacity:0.004" fill="#fefffe" d="M 36.5,25.5 C 37.8333,26.1667 37.8333,26.1667 36.5,25.5 Z"/></g>
<g><path style="opacity:0.004" fill="#fefffe" d="M 225.5,30.5 C 226.833,31.1667 226.833,31.1667 225.5,30.5 Z"/></g>
<g><path style="opacity:0.004" fill="#fefffe" d="M 162.5,31.5 C 163.833,32.1667 163.833,32.1667 162.5,31.5 Z"/></g>
<g><path style="opacity:0.004" fill="#fefffe" d="M 320.5,34.5 C 321.833,35.1667 321.833,35.1667 320.5,34.5 Z"/></g>
<g><path style="opacity:0.004" fill="#fefffe" d="M 406.5,39.5 C 407.833,40.1667 407.833,40.1667 406.5,39.5 Z"/></g>
<g><path style="opacity:0.004" fill="#fefffe" d="M 446.5,40.5 C 447.833,41.1667 447.833,41.1667 446.5,40.5 Z"/></g>
<g><path style="opacity:0.004" fill="#fefffe" d="M 215.5,44.5 C 216.833,45.1667 216.833,45.1667 215.5,44.5 Z"/></g>
<g><path style="opacity:0.004" fill="#fefffe" d="M 181.5,48.5 C 182.833,49.1667 182.833,49.1667 181.5,48.5 Z"/></g>
<g><path style="opacity:0.004" fill="#fefffe" d="M 296.5,50.5 C 297.833,51.1667 297.833,51.1667 296.5,50.5 Z"/></g>
<g><path style="opacity:0.004" fill="#fefffe" d="M 211.5,64.5 C 212.833,65.1667 212.833,65.1667 211.5,64.5 Z"/></g>
<g><path style="opacity:0.004" fill="#fefffe" d="M 132.5,68.5 C 133.833,69.1667 133.833,69.1667 132.5,68.5 Z"/></g>
<g><path style="opacity:0.004" fill="#fefffe" d="M 217.5,68.5 C 218.833,69.1667 218.833,69.1667 217.5,68.5 Z"/></g>
<g><path style="opacity:0.004" fill="#fefffe" d="M 323.5,74.5 C 324.833,75.1667 324.833,75.1667 323.5,74.5 Z"/></g>
<g><path style="opacity:0.004" fill="#fefffe" d="M 346.5,76.5 C 347.833,77.1667 347.833,77.1667 346.5,76.5 Z"/></g>
<g><path style="opacity:0.004" fill="#fefffe" d="M 313.5,80.5 C 314.833,81.1667 314.833,81.1667 313.5,80.5 Z"/></g>
<g><path style="opacity:0.004" fill="#fefffe" d="M 402.5,91.5 C 403.833,92.1667 403.833,92.1667 402.5,91.5 Z"/></g>
<g><path style="opacity:0.004" fill="#fefffe" d="M 203.5,104.5 C 204.833,105.167 204.833,105.167 203.5,104.5 Z"/></g>
<g><path style="opacity:0.004" fill="#fefffe" d="M 492.5,105.5 C 493.833,106.167 493.833,106.167 492.5,105.5 Z"/></g>
<g><path style="opacity:0.004" fill="#fefffe" d="M 412.5,122.5 C 413.833,123.167 413.833,123.167 412.5,122.5 Z"/></g>
<g><path style="opacity:0.004" fill="#fefffe" d="M 148.5,123.5 C 149.833,124.167 149.833,124.167 148.5,123.5 Z"/></g>
<g><path style="opacity:0.004" fill="#fefffe" d="M 294.5,123.5 C 295.833,124.167 295.833,124.167 294.5,123.5 Z"/></g>
<g><path style="opacity:0.004" fill="#fefffe" d="M 368.5,125.5 C 369.833,126.167 369.833,126.167 368.5,125.5 Z"/></g>
<g><path style="opacity:0.004" fill="#fefffe" d="M 299.5,127.5 C 300.833,128.167 300.833,128.167 299.5,127.5 Z"/></g>
<g><path style="opacity:0.004" fill="#fefffe" d="M 108.5,134.5 C 109.833,135.167 109.833,135.167 108.5,134.5 Z"/></g>
<g><path style="opacity:0.004" fill="#fefffe" d="M 433.5,135.5 C 434.833,136.167 434.833,136.167 433.5,135.5 Z"/></g>
<g><path style="opacity:0.169" fill="#eedec7" d="M 122.5,142.5 C 127.079,142.936 131.413,143.936 135.5,145.5C 130.823,145.165 126.156,144.665 121.5,144C 122.056,143.617 122.389,143.117 122.5,142.5 Z"/></g>
<g><path style="opacity:0.004" fill="#fefffe" d="M 182.5,144.5 C 183.833,145.167 183.833,145.167 182.5,144.5 Z"/></g>
<g><path style="opacity:0.88" fill="#e4d8bd" d="M 119.5,142.5 C 117.231,144.384 114.564,145.717 111.5,146.5C 112.243,147.182 112.909,147.849 113.5,148.5C 112.167,148.5 110.833,148.5 109.5,148.5C 109.5,147.167 109.5,145.833 109.5,144.5C 112.833,143.833 116.167,143.167 119.5,142.5 Z"/></g>
<g><path style="opacity:0.118" fill="#f1dac6" d="M 114.5,148.5 C 115.449,147.848 116.615,147.514 118,147.5C 119.681,147.608 120.848,148.275 121.5,149.5C 119.283,148.631 116.95,148.298 114.5,148.5 Z"/></g>
<g><path style="opacity:1" fill="#e9ce99" d="M 119.5,142.5 C 120.5,142.5 121.5,142.5 122.5,142.5C 122.389,143.117 122.056,143.617 121.5,144C 126.156,144.665 130.823,145.165 135.5,145.5C 136.167,145.5 136.833,145.5 137.5,145.5C 137.5,146.167 137.5,146.833 137.5,147.5C 133.253,146.398 128.92,146.232 124.5,147C 129.218,149.515 134.218,151.348 139.5,152.5C 138.833,153.167 138.167,153.833 137.5,154.5C 141.384,155.829 143.718,158.496 144.5,162.5C 138.158,155.829 130.492,151.496 121.5,149.5C 120.848,148.275 119.681,147.608 118,147.5C 116.615,147.514 115.449,147.848 114.5,148.5C 114.167,148.5 113.833,148.5 113.5,148.5C 112.909,147.849 112.243,147.182 111.5,146.5C 114.564,145.717 117.231,144.384 119.5,142.5 Z"/></g>
<g><path style="opacity:0.843" fill="#e9d3b1" d="M 137.5,145.5 C 143.754,147.627 149.42,150.793 154.5,155C 158.439,158.429 161.772,162.263 164.5,166.5C 159.45,161.988 154.45,157.488 149.5,153C 145.624,150.895 141.624,149.062 137.5,147.5C 137.5,146.833 137.5,146.167 137.5,145.5 Z"/></g>
<g><path style="opacity:0.004" fill="#fefffe" d="M 395.5,162.5 C 394.833,161.167 394.833,161.167 395.5,162.5 Z"/></g>
<g><path style="opacity:1" fill="#edc983" d="M 137.5,147.5 C 141.624,149.062 145.624,150.895 149.5,153C 154.45,157.488 159.45,161.988 164.5,166.5C 165.783,168.606 166.616,170.94 167,173.5C 168.829,175.156 170.163,177.156 171,179.5C 171.671,180.252 172.504,180.586 173.5,180.5C 174.167,180.5 174.5,180.833 174.5,181.5C 173.876,181.917 173.543,182.584 173.5,183.5C 174.651,185.325 175.318,187.325 175.5,189.5C 172.052,190.641 169.886,192.974 169,196.5C 168.667,196.167 168.333,195.833 168,195.5C 169.321,198.206 170.154,201.206 170.5,204.5C 169.21,203.942 168.377,202.942 168,201.5C 167.601,201.728 167.435,202.062 167.5,202.5C 167.167,202.5 166.833,202.5 166.5,202.5C 165.883,202.611 165.383,202.944 165,203.5C 163.208,227.352 161.041,251.019 158.5,274.5C 158.252,266.967 158.585,259.467 159.5,252C 157.61,248.278 157.277,244.445 158.5,240.5C 159.281,241.729 159.781,243.062 160,244.5C 160.319,240.761 159.819,237.094 158.5,233.5C 160.821,230.606 161.988,227.273 162,223.5C 162.788,216.444 162.455,209.444 161,202.5C 159.984,201.366 159.317,201.699 159,203.5C 157.384,218.184 155.717,232.85 154,247.5C 153.617,248.056 153.117,248.389 152.5,248.5C 153.619,243.347 153.619,238.347 152.5,233.5C 152.833,232.833 153.167,232.167 153.5,231.5C 154.222,231.082 154.722,230.416 155,229.5C 155.814,224.98 155.647,220.646 154.5,216.5C 154.5,216.167 154.5,215.833 154.5,215.5C 156.468,211.993 157.468,207.993 157.5,203.5C 157.489,201.955 157.156,200.622 156.5,199.5C 156.5,199.167 156.5,198.833 156.5,198.5C 157.748,197.666 158.415,196.333 158.5,194.5C 159.369,190.182 159.536,185.849 159,181.5C 158.051,179.907 156.885,178.574 155.5,177.5C 155.13,174.733 153.796,172.733 151.5,171.5C 150.872,168.91 149.705,166.577 148,164.5C 147.184,163.177 146.017,162.511 144.5,162.5C 143.718,158.496 141.384,155.829 137.5,154.5C 138.167,153.833 138.833,153.167 139.5,152.5C 134.218,151.348 129.218,149.515 124.5,147C 128.92,146.232 133.253,146.398 137.5,147.5 Z"/></g>
<g><path style="opacity:0.004" fill="#fefffe" d="M 395.5,162.5 C 396.833,163.167 396.833,163.167 395.5,162.5 Z"/></g>
<g><path style="opacity:0.004" fill="#fefffe" d="M 102.5,166.5 C 103.833,167.167 103.833,167.167 102.5,166.5 Z"/></g>
<g><path style="opacity:0.965" fill="#e6d4a9" d="M 283.5,166.5 C 282.448,166.351 281.448,166.517 280.5,167C 279.267,168.667 277.933,170.167 276.5,171.5C 277.38,168.738 278.546,166.071 280,163.5C 281.011,162.663 282.178,162.33 283.5,162.5C 283.5,163.833 283.5,165.167 283.5,166.5 Z"/></g>
<g><path style="opacity:0.004" fill="#fefffe" d="M 290.5,166.5 C 291.833,167.167 291.833,167.167 290.5,166.5 Z"/></g>
<g><path style="opacity:0.004" fill="#fefffe" d="M 376.5,166.5 C 377.833,167.167 377.833,167.167 376.5,166.5 Z"/></g>
<g><path style="opacity:0.102" fill="#eadab8" d="M 144.5,162.5 C 146.017,162.511 147.184,163.177 148,164.5C 149.705,166.577 150.872,168.91 151.5,171.5C 148.815,168.81 146.482,165.81 144.5,162.5 Z"/></g>
<g><path style="opacity:0.004" fill="#fefffe" d="M 252.5,169.5 C 253.833,170.167 253.833,170.167 252.5,169.5 Z"/></g>
<g><path style="opacity:0.004" fill="#fefffe" d="M 23.5,170.5 C 24.8333,171.167 24.8333,171.167 23.5,170.5 Z"/></g>
<g><path style="opacity:0.004" fill="#fefffe" d="M 409.5,170.5 C 410.833,171.167 410.833,171.167 409.5,170.5 Z"/></g>
<g><path style="opacity:0.004" fill="#fefffe" d="M 147.5,171.5 C 148.833,172.167 148.833,172.167 147.5,171.5 Z"/></g>
<g><path style="opacity:1" fill="#ead2a5" d="M 164.5,166.5 C 168.494,170.479 171.494,175.145 173.5,180.5C 172.504,180.586 171.671,180.252 171,179.5C 170.163,177.156 168.829,175.156 167,173.5C 166.616,170.94 165.783,168.606 164.5,166.5 Z"/></g>
<g><path style="opacity:0.816" fill="#ead7b5" d="M 151.5,171.5 C 153.796,172.733 155.13,174.733 155.5,177.5C 153.684,175.882 152.351,173.882 151.5,171.5 Z"/></g>
<g><path style="opacity:1" fill="#eec882" d="M 283.5,166.5 C 284.167,166.5 284.5,166.833 284.5,167.5C 283.527,169.948 283.194,172.615 283.5,175.5C 282.224,173.438 281.39,171.104 281,168.5C 280.39,172.236 280.723,175.903 282,179.5C 282.333,179.167 282.667,178.833 283,178.5C 284.008,182.771 283.508,186.771 281.5,190.5C 284.793,197.155 285.126,203.988 282.5,211C 282.475,215.948 282.809,220.948 283.5,226C 283.333,226.833 283.167,227.667 283,228.5C 282.333,229.833 281.667,229.833 281,228.5C 280.833,229 280.667,229.5 280.5,230C 281.367,233.105 281.701,236.272 281.5,239.5C 280.674,233.916 279.34,228.582 277.5,223.5C 277.5,223.167 277.5,222.833 277.5,222.5C 277.607,218.465 277.274,214.465 276.5,210.5C 276.36,208.97 275.693,207.97 274.5,207.5C 274.5,207.167 274.5,206.833 274.5,206.5C 275.634,204.034 275.801,201.367 275,198.5C 273.855,197.316 272.688,197.316 271.5,198.5C 270.778,198.918 270.278,199.584 270,200.5C 269.721,196.83 269.888,193.163 270.5,189.5C 271.117,189.389 271.617,189.056 272,188.5C 273.228,183.058 274.728,177.724 276.5,172.5C 276.5,172.167 276.5,171.833 276.5,171.5C 277.933,170.167 279.267,168.667 280.5,167C 281.448,166.517 282.448,166.351 283.5,166.5 Z"/></g>
<g><path style="opacity:0.004" fill="#fefffe" d="M 67.5,181.5 C 68.8333,182.167 68.8333,182.167 67.5,181.5 Z"/></g>
<g><path style="opacity:0.004" fill="#fefffe" d="M 450.5,181.5 C 451.833,182.167 451.833,182.167 450.5,181.5 Z"/></g>
<g><path style="opacity:0.247" fill="#ead6b5" d="M 155.5,177.5 C 156.885,178.574 158.051,179.907 159,181.5C 159.536,185.849 159.369,190.182 158.5,194.5C 158.415,196.333 157.748,197.666 156.5,198.5C 159.209,191.306 158.875,184.306 155.5,177.5 Z"/></g>
<g><path style="opacity:0.004" fill="#fefffe" d="M 305.5,184.5 C 306.833,185.167 306.833,185.167 305.5,184.5 Z"/></g>
<g><path style="opacity:0.898" fill="#e9d5af" d="M 174.5,181.5 C 176.831,186.829 179.164,192.162 181.5,197.5C 179.034,195.26 177.034,192.593 175.5,189.5C 175.318,187.325 174.651,185.325 173.5,183.5C 173.543,182.584 173.876,181.917 174.5,181.5 Z"/></g>
<g><path style="opacity:0.004" fill="#fefffe" d="M 449.5,186.5 C 450.833,187.167 450.833,187.167 449.5,186.5 Z"/></g>
<g><path style="opacity:0.004" fill="#fefffe" d="M 91.5,188.5 C 92.8333,189.167 92.8333,189.167 91.5,188.5 Z"/></g>
<g><path style="opacity:1" fill="#e9cea0" d="M 276.5,172.5 C 274.728,177.724 273.228,183.058 272,188.5C 271.617,189.056 271.117,189.389 270.5,189.5C 269.728,190.694 268.728,191.694 267.5,192.5C 269.989,185.528 272.989,178.861 276.5,172.5 Z"/></g>
<g><path style="opacity:0.004" fill="#fefffe" d="M 289.5,188.5 C 290.833,189.167 290.833,189.167 289.5,188.5 Z"/></g>
<g><path style="opacity:0.539" fill="#edd6b7" d="M 284.5,167.5 C 286.54,179.447 288.207,191.447 289.5,203.5C 289.167,203.5 288.833,203.5 288.5,203.5C 287.436,193.944 285.77,184.61 283.5,175.5C 283.194,172.615 283.527,169.948 284.5,167.5 Z"/></g>
<g><path style="opacity:0.949" fill="#e7d3aa" d="M 267.5,192.5 C 267.946,196.36 266.613,199.36 263.5,201.5C 264.075,198.088 265.408,195.088 267.5,192.5 Z"/></g>
<g><path style="opacity:1" fill="#eec980" d="M 283.5,175.5 C 285.77,184.61 287.436,193.944 288.5,203.5C 288.334,207.514 288.501,211.514 289,215.5C 289.874,223.408 291.374,231.075 293.5,238.5C 294.347,245.561 295.68,252.561 297.5,259.5C 296.504,259.586 295.671,259.252 295,258.5C 294.794,255.377 294.127,252.377 293,249.5C 291.837,251.285 291.17,253.285 291,255.5C 290,256.167 289,256.833 288,257.5C 286.275,251.987 285.275,246.32 285,240.5C 284.667,240.167 284.333,239.833 284,239.5C 283.505,241.473 283.338,243.473 283.5,245.5C 282.833,245.5 282.167,245.5 281.5,245.5C 281.5,243.5 281.5,241.5 281.5,239.5C 281.701,236.272 281.367,233.105 280.5,230C 280.667,229.5 280.833,229 281,228.5C 281.667,229.833 282.333,229.833 283,228.5C 283.167,227.667 283.333,226.833 283.5,226C 282.809,220.948 282.475,215.948 282.5,211C 285.126,203.988 284.793,197.155 281.5,190.5C 283.508,186.771 284.008,182.771 283,178.5C 282.667,178.833 282.333,179.167 282,179.5C 280.723,175.903 280.39,172.236 281,168.5C 281.39,171.104 282.224,173.438 283.5,175.5 Z"/></g>
<g><path style="opacity:0.004" fill="#fefffe" d="M 190.5,199.5 C 191.833,200.167 191.833,200.167 190.5,199.5 Z"/></g>
<g><path style="opacity:0.839" fill="#e9d4b2" d="M 274.5,206.5 C 274.662,204.473 274.495,202.473 274,200.5C 272.476,202.898 270.976,205.231 269.5,207.5C 269.413,204.261 270.08,201.261 271.5,198.5C 272.688,197.316 273.855,197.316 275,198.5C 275.801,201.367 275.634,204.034 274.5,206.5 Z"/></g>
<g><path style="opacity:0.796" fill="#e5d5ad" d="M 170.5,204.5 C 171.15,206.435 171.483,208.435 171.5,210.5C 169.638,208.109 168.304,205.442 167.5,202.5C 167.435,202.062 167.601,201.728 168,201.5C 168.377,202.942 169.21,203.942 170.5,204.5 Z"/></g>
<g><path style="opacity:1" fill="#e8d1a8" d="M 263.5,201.5 C 263.691,205.288 262.358,208.288 259.5,210.5C 260.075,207.088 261.408,204.088 263.5,201.5 Z"/></g>
<g><path style="opacity:0.102" fill="#edd9b5" d="M 156.5,199.5 C 157.156,200.622 157.489,201.955 157.5,203.5C 157.468,207.993 156.468,211.993 154.5,215.5C 155.654,210.27 156.32,204.936 156.5,199.5 Z"/></g>
<g><path style="opacity:0.576" fill="#ead6ab" d="M 181.5,197.5 C 186.01,205.858 190.01,214.525 193.5,223.5C 191.926,223.063 190.759,222.063 190,220.5C 187.904,215.141 185.404,209.975 182.5,205C 181.678,202.566 181.344,200.066 181.5,197.5 Z"/></g>
<g><path style="opacity:0.231" fill="#eee1c3" d="M 274.5,207.5 C 275.693,207.97 276.36,208.97 276.5,210.5C 277.274,214.465 277.607,218.465 277.5,222.5C 276.415,217.61 275.415,212.61 274.5,207.5 Z"/></g>
<g><path style="opacity:1" fill="#e7ce96" d="M 288.5,203.5 C 288.833,203.5 289.167,203.5 289.5,203.5C 289.335,206.85 289.502,210.183 290,213.5C 290.278,214.416 290.778,215.082 291.5,215.5C 292.593,220.484 293.593,225.484 294.5,230.5C 293.527,232.948 293.194,235.615 293.5,238.5C 291.374,231.075 289.874,223.408 289,215.5C 288.501,211.514 288.334,207.514 288.5,203.5 Z"/></g>
<g><path style="opacity:0.463" fill="#ead6b2" d="M 269.5,207.5 C 268.784,210.598 267.784,213.598 266.5,216.5C 265.903,216.265 265.57,215.765 265.5,215C 266.324,212.028 267.658,209.528 269.5,207.5 Z"/></g>
<g><path style="opacity:0.973" fill="#e7d3ac" d="M 259.5,210.5 C 257.839,216.475 256.172,222.475 254.5,228.5C 253.5,228.5 252.5,228.5 251.5,228.5C 253.656,222.196 256.322,216.196 259.5,210.5 Z"/></g>
<g><path style="opacity:0.643" fill="#ebd6b6" d="M 171.5,210.5 C 174.651,214.277 176.651,218.611 177.5,223.5C 174.71,219.584 172.71,215.251 171.5,210.5 Z"/></g>
<g><path style="opacity:0.384" fill="#edd7bf" d="M 289.5,203.5 C 290.989,207.236 291.656,211.236 291.5,215.5C 290.778,215.082 290.278,214.416 290,213.5C 289.502,210.183 289.335,206.85 289.5,203.5 Z"/></g>
<g><path style="opacity:0.004" fill="#fefffe" d="M 4.5,223.5 C 5.83333,224.167 5.83333,224.167 4.5,223.5 Z"/></g>
<g><path style="opacity:0.82" fill="#e8d7b8" d="M 277.5,223.5 C 279.34,228.582 280.674,233.916 281.5,239.5C 281.5,241.5 281.5,243.5 281.5,245.5C 281.768,247.099 281.434,248.432 280.5,249.5C 279.336,240.854 278.336,232.187 277.5,223.5 Z"/></g>
<g><path style="opacity:0.549" fill="#ebd7b2" d="M 154.5,216.5 C 155.647,220.646 155.814,224.98 155,229.5C 154.722,230.416 154.222,231.082 153.5,231.5C 153.751,226.493 154.084,221.493 154.5,216.5 Z"/></g>
<g><path style="opacity:0.004" fill="#fefffe" d="M 138.5,231.5 C 139.833,232.167 139.833,232.167 138.5,231.5 Z"/></g>
<g><path style="opacity:0.969" fill="#e9d5a8" d="M 193.5,223.5 C 196.018,227.877 198.018,232.544 199.5,237.5C 195.85,233.534 193.85,228.867 193.5,223.5 Z"/></g>
<g><path style="opacity:0.937" fill="#ebd5b8" d="M 259.5,230.5 C 258.958,233.912 257.625,236.912 255.5,239.5C 255.711,235.818 257.044,232.818 259.5,230.5 Z"/></g>
<g><path style="opacity:1" fill="#eec881" d="M 175.5,189.5 C 177.034,192.593 179.034,195.26 181.5,197.5C 181.344,200.066 181.678,202.566 182.5,205C 185.404,209.975 187.904,215.141 190,220.5C 190.759,222.063 191.926,223.063 193.5,223.5C 193.85,228.867 195.85,233.534 199.5,237.5C 199.5,241.154 200.5,244.487 202.5,247.5C 200.662,247.023 198.828,246.69 197,246.5C 196.333,248.167 196.333,249.833 197,251.5C 198.862,253.029 200.362,254.863 201.5,257C 201.167,257.5 200.833,258 200.5,258.5C 199.614,257.675 199.281,256.675 199.5,255.5C 197.508,255.672 195.842,255.005 194.5,253.5C 193.893,253.624 193.56,253.957 193.5,254.5C 188.462,244.093 183.129,233.76 177.5,223.5C 176.651,218.611 174.651,214.277 171.5,210.5C 171.483,208.435 171.15,206.435 170.5,204.5C 170.154,201.206 169.321,198.206 168,195.5C 168.333,195.833 168.667,196.167 169,196.5C 169.886,192.974 172.052,190.641 175.5,189.5 Z"/></g>
<g><path style="opacity:1" fill="#edc983" d="M 270.5,189.5 C 269.888,193.163 269.721,196.83 270,200.5C 270.278,199.584 270.778,198.918 271.5,198.5C 270.08,201.261 269.413,204.261 269.5,207.5C 267.658,209.528 266.324,212.028 265.5,215C 265.57,215.765 265.903,216.265 266.5,216.5C 264.153,221.241 261.819,225.907 259.5,230.5C 257.044,232.818 255.711,235.818 255.5,239.5C 253.822,240.747 252.489,242.414 251.5,244.5C 247.378,253.2 244.044,262.2 241.5,271.5C 239.731,273.421 238.397,275.754 237.5,278.5C 235.373,279.398 234.206,281.064 234,283.5C 233.667,283.167 233.333,282.833 233,282.5C 232.667,284.833 232.333,287.167 232,289.5C 230.375,288.119 229.208,286.452 228.5,284.5C 230.386,281.071 231.386,277.404 231.5,273.5C 231.5,273.167 231.5,272.833 231.5,272.5C 234.892,271.01 236.226,268.343 235.5,264.5C 240.555,258.556 243.888,251.723 245.5,244C 249.456,239.68 251.456,234.514 251.5,228.5C 252.5,228.5 253.5,228.5 254.5,228.5C 256.172,222.475 257.839,216.475 259.5,210.5C 262.358,208.288 263.691,205.288 263.5,201.5C 266.613,199.36 267.946,196.36 267.5,192.5C 268.728,191.694 269.728,190.694 270.5,189.5 Z"/></g>
<g><path style="opacity:0.004" fill="#fefffe" d="M 229.5,234.5 C 230.833,235.167 230.833,235.167 229.5,234.5 Z"/></g>
<g><path style="opacity:0.004" fill="#fefffe" d="M 390.5,236.5 C 391.833,237.167 391.833,237.167 390.5,236.5 Z"/></g>
<g><path style="opacity:0.953" fill="#ecd3b6" d="M 152.5,233.5 C 153.619,238.347 153.619,243.347 152.5,248.5C 152.5,249.167 152.167,249.5 151.5,249.5C 151.687,244.155 152.02,238.822 152.5,233.5 Z"/></g>
<g><path style="opacity:1" fill="#eec981" d="M 158.5,274.5 C 157.354,285.474 156.854,296.474 157,307.5C 157.383,308.056 157.883,308.389 158.5,308.5C 158.859,310.371 159.859,311.871 161.5,313C 151.5,313.667 141.5,313.667 131.5,313C 132.737,312.768 133.737,312.268 134.5,311.5C 134.5,310.833 134.833,310.5 135.5,310.5C 135.56,311.043 135.893,311.376 136.5,311.5C 139.207,310.422 141.874,309.422 144.5,308.5C 144.575,305.794 144.908,303.127 145.5,300.5C 145.5,300.167 145.5,299.833 145.5,299.5C 147.256,295.227 147.59,290.894 146.5,286.5C 146.5,286.167 146.5,285.833 146.5,285.5C 147.496,285.586 148.329,285.252 149,284.5C 149.324,277.486 149.824,270.486 150.5,263.5C 150.489,261.955 150.156,260.622 149.5,259.5C 150.097,256.059 150.763,252.725 151.5,249.5C 152.167,249.5 152.5,249.167 152.5,248.5C 153.117,248.389 153.617,248.056 154,247.5C 155.717,232.85 157.384,218.184 159,203.5C 159.317,201.699 159.984,201.366 161,202.5C 162.455,209.444 162.788,216.444 162,223.5C 161.988,227.273 160.821,230.606 158.5,233.5C 159.819,237.094 160.319,240.761 160,244.5C 159.781,243.062 159.281,241.729 158.5,240.5C 157.277,244.445 157.61,248.278 159.5,252C 158.585,259.467 158.252,266.967 158.5,274.5 Z"/></g>
<g><path style="opacity:0.004" fill="#fefffe" d="M 89.5,248.5 C 90.8333,249.167 90.8333,249.167 89.5,248.5 Z"/></g>
<g><path style="opacity:1" fill="#e9cfa1" d="M 251.5,228.5 C 251.456,234.514 249.456,239.68 245.5,244C 243.888,251.723 240.555,258.556 235.5,264.5C 240.322,252.196 245.656,240.196 251.5,228.5 Z"/></g>
<g><path style="opacity:0.737" fill="#e9d4af" d="M 255.5,239.5 C 251.351,250.458 246.684,261.125 241.5,271.5C 244.044,262.2 247.378,253.2 251.5,244.5C 252.489,242.414 253.822,240.747 255.5,239.5 Z"/></g>
<g><path style="opacity:0.729" fill="#e9d4ac" d="M 177.5,223.5 C 183.129,233.76 188.462,244.093 193.5,254.5C 201.6,273.511 210.1,292.511 219,311.5C 219.49,312.793 219.657,314.127 219.5,315.5C 204.984,285.13 190.984,254.463 177.5,223.5 Z"/></g>
<g><path style="opacity:0.004" fill="#fefffe" d="M 89.5,254.5 C 90.8333,255.167 90.8333,255.167 89.5,254.5 Z"/></g>
<g><path style="opacity:1" fill="#edc985" d="M 321.5,252.5 C 327.5,252.5 333.5,252.5 339.5,252.5C 339.62,253.586 340.287,254.253 341.5,254.5C 354.824,256.501 367.49,260.668 379.5,267C 380.883,270.195 382.216,273.362 383.5,276.5C 383.5,276.833 383.5,277.167 383.5,277.5C 384.075,283.167 384.242,288.833 384,294.5C 383.8,292.68 382.966,291.347 381.5,290.5C 381.035,286.938 379.868,283.605 378,280.5C 374.651,277.318 371.484,273.985 368.5,270.5C 362.672,265.788 356.172,262.788 349,261.5C 347.93,261.528 347.097,261.861 346.5,262.5C 346.167,262.5 345.833,262.5 345.5,262.5C 344.411,260.883 342.744,260.05 340.5,260C 329.04,259.01 317.707,259.51 306.5,261.5C 305.325,261.719 304.325,261.386 303.5,260.5C 306.167,259.833 308.833,259.167 311.5,258.5C 311.137,257.817 310.804,257.15 310.5,256.5C 314.292,255.272 317.958,253.939 321.5,252.5 Z"/></g>
<g><path style="opacity:0.004" fill="#fefffe" d="M 367.5,255.5 C 368.833,256.167 368.833,256.167 367.5,255.5 Z"/></g>
<g><path style="opacity:0.004" fill="#fefffe" d="M 99.5,256.5 C 100.833,257.167 100.833,257.167 99.5,256.5 Z"/></g>
<g><path style="opacity:1" fill="#eec880" d="M 297.5,259.5 C 301.804,258.372 306.138,257.372 310.5,256.5C 310.804,257.15 311.137,257.817 311.5,258.5C 308.833,259.167 306.167,259.833 303.5,260.5C 304.325,261.386 305.325,261.719 306.5,261.5C 303.536,262.808 301.203,264.808 299.5,267.5C 298.357,270.976 298.19,274.642 299,278.5C 299.24,280.852 300.073,282.852 301.5,284.5C 301.413,293.815 303.413,302.648 307.5,311C 307.836,312.03 308.503,312.53 309.5,312.5C 309.833,313.167 310.167,313.833 310.5,314.5C 309.876,314.917 309.543,315.584 309.5,316.5C 310.937,318.577 311.604,320.91 311.5,323.5C 307.116,323.826 302.783,323.492 298.5,322.5C 297.184,319.616 296.184,316.616 295.5,313.5C 293.566,311.276 291.899,308.942 290.5,306.5C 288.76,298.309 287.593,289.976 287,281.5C 286.247,278.095 284.414,277.095 281.5,278.5C 280.325,278.719 279.325,278.386 278.5,277.5C 278.39,272.981 280.224,269.648 284,267.5C 284.683,260.139 284.517,252.805 283.5,245.5C 283.338,243.473 283.505,241.473 284,239.5C 284.333,239.833 284.667,240.167 285,240.5C 285.275,246.32 286.275,251.987 288,257.5C 289,256.833 290,256.167 291,255.5C 291.17,253.285 291.837,251.285 293,249.5C 294.127,252.377 294.794,255.377 295,258.5C 295.671,259.252 296.504,259.586 297.5,259.5 Z"/></g>
<g><path style="opacity:0.965" fill="#e8d5ad" d="M 199.5,237.5 C 204.73,247.167 209.397,257.167 213.5,267.5C 209.248,261.19 205.581,254.523 202.5,247.5C 200.5,244.487 199.5,241.154 199.5,237.5 Z"/></g>
<g><path style="opacity:0.892" fill="#e8d5ae" d="M 294.5,230.5 C 295.424,239.618 296.924,248.618 299,257.5C 306.291,254.969 313.791,253.303 321.5,252.5C 317.958,253.939 314.292,255.272 310.5,256.5C 306.138,257.372 301.804,258.372 297.5,259.5C 295.68,252.561 294.347,245.561 293.5,238.5C 293.194,235.615 293.527,232.948 294.5,230.5 Z"/></g>
<g><path style="opacity:0.984" fill="#e9d6b3" d="M 339.5,252.5 C 352.889,253.849 365.555,257.682 377.5,264C 382.564,266.629 384.564,270.796 383.5,276.5C 382.216,273.362 380.883,270.195 379.5,267C 367.49,260.668 354.824,256.501 341.5,254.5C 340.287,254.253 339.62,253.586 339.5,252.5 Z"/></g>
<g><path style="opacity:0.214" fill="#e9d7b6" d="M 345.5,262.5 C 330.343,258.873 315.676,260.373 301.5,267C 300.232,269.163 300.232,271.33 301.5,273.5C 299.692,272.082 299.025,270.082 299.5,267.5C 301.203,264.808 303.536,262.808 306.5,261.5C 317.707,259.51 329.04,259.01 340.5,260C 342.744,260.05 344.411,260.883 345.5,262.5 Z"/></g>
<g><path style="opacity:0.004" fill="#fefffe" d="M 78.5,264.5 C 79.8333,265.167 79.8333,265.167 78.5,264.5 Z"/></g>
<g><path style="opacity:0.004" fill="#fefffe" d="M 31.5,265.5 C 32.8333,266.167 32.8333,266.167 31.5,265.5 Z"/></g>
<g><path style="opacity:0.969" fill="#ebd2a8" d="M 235.5,264.5 C 236.226,268.343 234.892,271.01 231.5,272.5C 232.326,269.515 233.659,266.849 235.5,264.5 Z"/></g>
<g><path style="opacity:0.965" fill="#ebd6b5" d="M 213.5,267.5 C 216.949,272.735 219.616,278.402 221.5,284.5C 217.507,279.511 214.84,273.844 213.5,267.5 Z"/></g>
<g><path style="opacity:1" fill="#eec981" d="M 202.5,247.5 C 205.581,254.523 209.248,261.19 213.5,267.5C 214.84,273.844 217.507,279.511 221.5,284.5C 221.5,285.833 221.5,287.167 221.5,288.5C 222.738,290.619 224.238,292.619 226,294.5C 226.192,292.423 226.692,290.423 227.5,288.5C 229.773,289.375 230.773,291.042 230.5,293.5C 226.668,300.292 224.335,307.625 223.5,315.5C 222.167,315.5 220.833,315.5 219.5,315.5C 219.657,314.127 219.49,312.793 219,311.5C 210.1,292.511 201.6,273.511 193.5,254.5C 193.56,253.957 193.893,253.624 194.5,253.5C 195.842,255.005 197.508,255.672 199.5,255.5C 199.281,256.675 199.614,257.675 200.5,258.5C 200.833,258 201.167,257.5 201.5,257C 200.362,254.863 198.862,253.029 197,251.5C 196.333,249.833 196.333,248.167 197,246.5C 198.828,246.69 200.662,247.023 202.5,247.5 Z"/></g>
<g><path style="opacity:0.051" fill="#ead7bf" d="M 241.5,271.5 C 240.925,274.912 239.592,277.912 237.5,280.5C 237.5,279.833 237.5,279.167 237.5,278.5C 238.397,275.754 239.731,273.421 241.5,271.5 Z"/></g>
<g><path style="opacity:1" fill="#e7cd95" d="M 299.5,267.5 C 299.025,270.082 299.692,272.082 301.5,273.5C 301.279,276.279 301.612,278.946 302.5,281.5C 301.596,282.209 301.263,283.209 301.5,284.5C 300.073,282.852 299.24,280.852 299,278.5C 298.19,274.642 298.357,270.976 299.5,267.5 Z"/></g>
<g><path style="opacity:0.004" fill="#fefffe" d="M 348.5,274.5 C 349.833,275.167 349.833,275.167 348.5,274.5 Z"/></g>
<g><path style="opacity:0.059" fill="#e8d3ac" d="M 346.5,262.5 C 347.097,261.861 347.93,261.528 349,261.5C 356.172,262.788 362.672,265.788 368.5,270.5C 371.484,273.985 374.651,277.318 378,280.5C 379.868,283.605 381.035,286.938 381.5,290.5C 374.604,275.277 362.938,265.944 346.5,262.5 Z"/></g>
<g><path style="opacity:0.341" fill="#ecd8b1" d="M 280.5,250.5 C 282.117,251.589 282.95,253.256 283,255.5C 283.667,259.167 283.667,262.833 283,266.5C 280.333,268.5 277.667,270.5 275,272.5C 274.517,273.448 274.351,274.448 274.5,275.5C 273.022,275.238 271.689,275.571 270.5,276.5C 266.811,280.52 263.145,284.52 259.5,288.5C 264.765,278.734 272.265,271.068 282,265.5C 282.566,260.368 282.066,255.368 280.5,250.5 Z"/></g>
<g><path style="opacity:0.765" fill="#e9d6b1" d="M 290.5,306.5 C 287.741,297.772 285.575,288.772 284,279.5C 280.257,283.732 276.757,288.065 273.5,292.5C 275.217,287.412 277.884,282.746 281.5,278.5C 284.414,277.095 286.247,278.095 287,281.5C 287.593,289.976 288.76,298.309 290.5,306.5 Z"/></g>
<g><path style="opacity:0.339" fill="#ead8b4" d="M 166.5,202.5 C 163.753,235.828 160.753,269.328 157.5,303C 157.696,304.878 158.029,306.712 158.5,308.5C 157.883,308.389 157.383,308.056 157,307.5C 156.854,296.474 157.354,285.474 158.5,274.5C 161.041,251.019 163.208,227.352 165,203.5C 165.383,202.944 165.883,202.611 166.5,202.5 Z"/></g>
<g><path style="opacity:1" fill="#edc982" d="M 281.5,245.5 C 282.167,245.5 282.833,245.5 283.5,245.5C 284.517,252.805 284.683,260.139 284,267.5C 280.224,269.648 278.39,272.981 278.5,277.5C 279.325,278.386 280.325,278.719 281.5,278.5C 277.884,282.746 275.217,287.412 273.5,292.5C 270.863,294.482 269.53,297.148 269.5,300.5C 269.5,300.833 269.5,301.167 269.5,301.5C 266.262,305.041 264.928,309.374 265.5,314.5C 265.5,314.833 265.5,315.167 265.5,315.5C 263.96,317.838 263.294,320.505 263.5,323.5C 258.5,323.5 253.5,323.5 248.5,323.5C 248.575,320.794 248.908,318.127 249.5,315.5C 250.222,315.082 250.722,314.416 251,313.5C 251.497,310.854 251.664,308.187 251.5,305.5C 251.5,305.167 251.5,304.833 251.5,304.5C 252.807,303.847 254.14,303.18 255.5,302.5C 256.521,298.474 257.521,294.474 258.5,290.5C 258.328,289.508 258.662,288.842 259.5,288.5C 263.145,284.52 266.811,280.52 270.5,276.5C 271.689,275.571 273.022,275.238 274.5,275.5C 274.351,274.448 274.517,273.448 275,272.5C 277.667,270.5 280.333,268.5 283,266.5C 283.667,262.833 283.667,259.167 283,255.5C 282.95,253.256 282.117,251.589 280.5,250.5C 280.5,250.167 280.5,249.833 280.5,249.5C 281.434,248.432 281.768,247.099 281.5,245.5 Z"/></g>
<g><path style="opacity:1" fill="#e9d3a8" d="M 149.5,259.5 C 150.156,260.622 150.489,261.955 150.5,263.5C 149.824,270.486 149.324,277.486 149,284.5C 148.329,285.252 147.496,285.586 146.5,285.5C 147.934,276.928 148.934,268.261 149.5,259.5 Z"/></g>
<g><path style="opacity:0.004" fill="#fefffe" d="M 358.5,283.5 C 359.833,284.167 359.833,284.167 358.5,283.5 Z"/></g>
<g><path style="opacity:0.004" fill="#fefffe" d="M 117.5,284.5 C 118.833,285.167 118.833,285.167 117.5,284.5 Z"/></g>
<g><path style="opacity:0.984" fill="#ead8b8" d="M 227.5,282.5 C 227.736,285.226 226.903,287.559 225,289.5C 223.989,288.663 222.822,288.33 221.5,288.5C 221.5,287.167 221.5,285.833 221.5,284.5C 222.315,285.429 223.148,286.429 224,287.5C 225.03,285.654 226.196,283.987 227.5,282.5 Z"/></g>
<g><path style="opacity:0.004" fill="#fefffe" d="M 411.5,286.5 C 412.833,287.167 412.833,287.167 411.5,286.5 Z"/></g>
<g><path style="opacity:1" fill="#eacc94" d="M 231.5,273.5 C 231.386,277.404 230.386,281.071 228.5,284.5C 229.208,286.452 230.375,288.119 232,289.5C 232.333,287.167 232.667,284.833 233,282.5C 233.333,282.833 233.667,283.167 234,283.5C 234.206,281.064 235.373,279.398 237.5,278.5C 237.5,279.167 237.5,279.833 237.5,280.5C 236.284,285.262 234.284,289.595 231.5,293.5C 231.167,293.5 230.833,293.5 230.5,293.5C 230.773,291.042 229.773,289.375 227.5,288.5C 226.692,290.423 226.192,292.423 226,294.5C 224.238,292.619 222.738,290.619 221.5,288.5C 222.822,288.33 223.989,288.663 225,289.5C 226.903,287.559 227.736,285.226 227.5,282.5C 228.042,279.088 229.375,276.088 231.5,273.5 Z"/></g>
<g><path style="opacity:0.345" fill="#e9ddbe" d="M 146.5,286.5 C 147.59,290.894 147.256,295.227 145.5,299.5C 145.739,295.158 146.073,290.824 146.5,286.5 Z"/></g>
<g><path style="opacity:0.886" fill="#e7d4b0" d="M 383.5,277.5 C 385,284.294 386,291.294 386.5,298.5C 385.325,298.719 384.325,298.386 383.5,297.5C 382.423,295.271 381.756,292.937 381.5,290.5C 382.966,291.347 383.8,292.68 384,294.5C 384.242,288.833 384.075,283.167 383.5,277.5 Z"/></g>
<g><path style="opacity:0.282" fill="#e5d8b5" d="M 273.5,292.5 C 272.674,295.485 271.341,298.151 269.5,300.5C 269.53,297.148 270.863,294.482 273.5,292.5 Z"/></g>
<g><path style="opacity:1" fill="#e7ce97" d="M 258.5,290.5 C 257.521,294.474 256.521,298.474 255.5,302.5C 254.14,303.18 252.807,303.847 251.5,304.5C 252.799,299.236 255.132,294.569 258.5,290.5 Z"/></g>
<g><path style="opacity:0.004" fill="#fefffe" d="M 101.5,300.5 C 102.833,301.167 102.833,301.167 101.5,300.5 Z"/></g>
<g><path style="opacity:0.69" fill="#e9d8b0" d="M 302.5,281.5 C 303.688,292.111 306.022,302.444 309.5,312.5C 308.503,312.53 307.836,312.03 307.5,311C 303.413,302.648 301.413,293.815 301.5,284.5C 301.263,283.209 301.596,282.209 302.5,281.5 Z"/></g>
<g><path style="opacity:0.004" fill="#fefffe" d="M 351.5,301.5 C 352.833,302.167 352.833,302.167 351.5,301.5 Z"/></g>
<g><path style="opacity:1" fill="#ecd3b1" d="M 145.5,300.5 C 144.908,303.127 144.575,305.794 144.5,308.5C 141.874,309.422 139.207,310.422 136.5,311.5C 135.893,311.376 135.56,311.043 135.5,310.5C 140.529,308.805 143.862,305.471 145.5,300.5 Z"/></g>
<g><path style="opacity:0.035" fill="#eaddba" d="M 269.5,301.5 C 270.528,302.787 270.195,303.954 268.5,305C 267.71,308.356 266.71,311.523 265.5,314.5C 264.928,309.374 266.262,305.041 269.5,301.5 Z"/></g>
<g><path style="opacity:0.302" fill="#ebdabc" d="M 230.5,293.5 C 230.833,293.5 231.167,293.5 231.5,293.5C 228.508,301.312 226.008,309.312 224,317.5C 221.499,319.056 219.999,318.389 219.5,315.5C 220.833,315.5 222.167,315.5 223.5,315.5C 224.335,307.625 226.668,300.292 230.5,293.5 Z"/></g>
<g><path style="opacity:0.867" fill="#e9d7c6" d="M 130.5,311.5 C 129.909,312.151 129.243,312.818 128.5,313.5C 130.631,314.169 132.631,314.835 134.5,315.5C 131.833,315.5 129.167,315.5 126.5,315.5C 126.5,314.167 126.5,312.833 126.5,311.5C 127.833,311.5 129.167,311.5 130.5,311.5 Z"/></g>
<g><path style="opacity:0.875" fill="#e8d3bf" d="M 163.5,311.5 C 165.977,311.051 167.977,311.717 169.5,313.5C 169.291,314.086 168.957,314.586 168.5,315C 166.19,315.497 163.857,315.663 161.5,315.5C 162.6,314.395 163.267,313.062 163.5,311.5 Z"/></g>
<g><path style="opacity:0.871" fill="#e5d2ab" d="M 158.5,308.5 C 159.922,309.925 161.589,310.925 163.5,311.5C 163.267,313.062 162.6,314.395 161.5,315.5C 152.5,315.5 143.5,315.5 134.5,315.5C 132.631,314.835 130.631,314.169 128.5,313.5C 129.243,312.818 129.909,312.151 130.5,311.5C 131.833,311.5 133.167,311.5 134.5,311.5C 133.737,312.268 132.737,312.768 131.5,313C 141.5,313.667 151.5,313.667 161.5,313C 159.859,311.871 158.859,310.371 158.5,308.5 Z"/></g>
<g><path style="opacity:0.969" fill="#ebd3a3" d="M 251.5,305.5 C 251.664,308.187 251.497,310.854 251,313.5C 250.722,314.416 250.222,315.082 249.5,315.5C 249.672,314.508 249.338,313.842 248.5,313.5C 249.205,310.646 250.205,307.979 251.5,305.5 Z"/></g>
<g><path style="opacity:0.004" fill="#fefffe" d="M 280.5,321.5 C 281.833,322.167 281.833,322.167 280.5,321.5 Z"/></g>
<g><path style="opacity:0.518" fill="#eddec7" d="M 248.5,313.5 C 249.338,313.842 249.672,314.508 249.5,315.5C 248.908,318.127 248.575,320.794 248.5,323.5C 253.5,323.5 258.5,323.5 263.5,323.5C 263.294,320.505 263.96,317.838 265.5,315.5C 265.893,318.93 265.227,322.096 263.5,325C 258.449,325.031 253.782,325.198 249.5,325.5C 247.976,324.473 247.309,322.973 247.5,321C 247.917,318.502 248.251,316.002 248.5,313.5 Z"/></g>
<g><path style="opacity:0.518" fill="#ebd9b8" d="M 290.5,306.5 C 291.899,308.942 293.566,311.276 295.5,313.5C 296.184,316.616 297.184,319.616 298.5,322.5C 302.783,323.492 307.116,323.826 311.5,323.5C 311.604,320.91 310.937,318.577 309.5,316.5C 309.543,315.584 309.876,314.917 310.5,314.5C 311.502,318.003 313.169,321.17 315.5,324C 315.167,324.333 314.833,324.667 314.5,325C 309.42,325.549 304.254,325.382 299,324.5C 294.546,319.326 291.713,313.326 290.5,306.5 Z"/></g>
<g><path style="opacity:0.004" fill="#fefffe" d="M 400.5,329.5 C 401.833,330.167 401.833,330.167 400.5,329.5 Z"/></g>
<g><path style="opacity:0.009" fill="#fbf5f4" d="M 147.5,333.5 C 146.167,333.5 144.833,333.5 143.5,333.5C 143.81,336.713 143.477,339.713 142.5,342.5C 142.18,339.102 142.513,335.768 143.5,332.5C 145.297,331.068 146.63,331.401 147.5,333.5 Z"/></g>
<g><path style="opacity:0.161" fill="#eee7dd" d="M 253.5,335.5 C 252.817,333.824 251.483,333.157 249.5,333.5C 250.598,332.603 250.598,331.77 249.5,331C 252.248,328.588 254.248,329.088 255.5,332.5C 255.547,334.038 254.88,335.038 253.5,335.5 Z"/></g>
<g><path style="opacity:0.271" fill="#f1e8d6" d="M 305.5,333.5 C 302.833,333.5 300.167,333.5 297.5,333.5C 299.22,332.136 301.22,331.136 303.5,330.5C 304.425,331.357 305.092,332.357 305.5,333.5 Z"/></g>
<g><path style="opacity:0.831" fill="#ede1d1" d="M 400.5,332.5 C 402.977,332.051 404.977,332.717 406.5,334.5C 406.291,335.086 405.957,335.586 405.5,336C 403.19,336.497 400.857,336.663 398.5,336.5C 399.741,335.716 401.741,335.049 404.5,334.5C 403.051,333.828 401.718,333.161 400.5,332.5 Z"/></g>
<g><path style="opacity:0.949" fill="#e9cfa0" d="M 297.5,333.5 C 300.167,333.5 302.833,333.5 305.5,333.5C 307.762,334.345 308.429,335.678 307.5,337.5C 306.167,337.5 304.833,337.5 303.5,337.5C 299.167,337.167 297.167,339.167 297.5,343.5C 297.5,344.167 297.5,344.833 297.5,345.5C 295.621,345.393 295.288,345.893 296.5,347C 299.882,347.824 303.216,347.657 306.5,346.5C 305.675,345.614 304.675,345.281 303.5,345.5C 302.498,343.989 301.831,342.322 301.5,340.5C 303.5,340.5 305.5,340.5 307.5,340.5C 307.5,343.167 307.5,345.833 307.5,348.5C 305.291,348.483 302.957,348.816 300.5,349.5C 293.727,348.303 291.227,344.303 293,337.5C 293.748,335.249 295.248,333.916 297.5,333.5 Z"/></g>
<g><path style="opacity:0.456" fill="#ede2c7" d="M 325.5,332.5 C 327.75,332.181 329.75,332.681 331.5,334C 331.484,338.359 331.317,342.859 331,347.5C 329.688,349.658 328.022,349.991 326,348.5C 325.501,343.177 325.334,337.844 325.5,332.5 Z"/></g>
<g><path style="opacity:1" fill="#eec980" d="M 394.5,334.5 C 394.238,336.564 393.071,337.897 391,338.5C 390.82,356.21 390.32,373.877 389.5,391.5C 391.386,394.007 392.719,396.673 393.5,399.5C 394.167,400.833 394.833,402.167 395.5,403.5C 394.69,408.524 394.357,413.524 394.5,418.5C 393.029,417.619 392.196,416.286 392,414.5C 391.503,412.19 391.337,409.857 391.5,407.5C 388.513,407.578 387.847,406.411 389.5,404C 389.37,402.941 388.87,402.108 388,401.5C 386.519,402.471 385.685,403.804 385.5,405.5C 384.833,405.5 384.167,405.5 383.5,405.5C 382.833,400.833 382.167,396.167 381.5,391.5C 379.282,391.614 377.282,392.28 375.5,393.5C 374.5,393.5 373.5,393.5 372.5,393.5C 372.491,391.692 372.991,390.025 374,388.5C 375.627,387.468 376.793,386.134 377.5,384.5C 379.033,367.831 378.7,351.164 376.5,334.5C 382.5,334.5 388.5,334.5 394.5,334.5 Z"/></g>
<g><path style="opacity:0.2" fill="#e9d7bd" d="M 157.5,348.5 C 158.496,348.586 159.329,348.252 160,347.5C 160.499,343.179 160.666,338.846 160.5,334.5C 158.486,334.392 156.82,335.058 155.5,336.5C 156.122,333.224 158.122,331.891 161.5,332.5C 161.5,338.167 161.5,343.833 161.5,349.5C 159.901,349.768 158.568,349.434 157.5,348.5 Z"/></g>
<g><path style="opacity:0.976" fill="#ead2a4" d="M 249.5,333.5 C 251.483,333.157 252.817,333.824 253.5,335.5C 252.298,337.392 250.965,339.226 249.5,341C 250.044,341.717 250.711,342.217 251.5,342.5C 251.328,343.492 251.662,344.158 252.5,344.5C 252.5,345.5 252.5,346.5 252.5,347.5C 249.656,347.657 247.989,346.324 247.5,343.5C 248.451,342.081 248.784,340.415 248.5,338.5C 247.209,338.737 246.209,338.404 245.5,337.5C 246.473,335.861 247.806,334.527 249.5,333.5 Z"/></g>
<g><path style="opacity:0.997" fill="#e7c98d" d="M 352.5,345.5 C 354.288,345.215 355.955,345.548 357.5,346.5C 354.914,347.48 352.247,347.813 349.5,347.5C 349.5,344.167 349.5,340.833 349.5,337.5C 349.369,336.624 349.702,335.957 350.5,335.5C 351.167,338.977 351.834,342.311 352.5,345.5 Z"/></g>
<g><path style="opacity:0.004" fill="#fefffe" d="M 152.5,338.5 C 151.833,337.167 151.833,337.167 152.5,338.5 Z"/></g>
<g><path style="opacity:0.941" fill="#e8d0a1" d="M 188.5,346.5 C 186.735,345.539 184.735,345.205 182.5,345.5C 184.895,344.186 187.395,344.186 190,345.5C 190.847,342.51 189.68,341.176 186.5,341.5C 186.167,340.167 185.833,340.167 185.5,341.5C 184.504,341.586 183.671,341.252 183,340.5C 182.051,342.093 180.885,343.426 179.5,344.5C 180.701,340.737 182.201,337.07 184,333.5C 185.494,332.253 186.994,332.253 188.5,333.5C 190.695,338.085 192.695,342.751 194.5,347.5C 192.099,350.152 190.099,349.819 188.5,346.5 Z"/></g>
<g><path style="opacity:0.867" fill="#e7d9af" d="M 353.5,337.5 C 352.527,339.948 352.194,342.615 352.5,345.5C 351.834,342.311 351.167,338.977 350.5,335.5C 349.702,335.957 349.369,336.624 349.5,337.5C 348.833,337.833 348.167,338.167 347.5,338.5C 346.492,333.333 348.325,331.666 353,333.5C 353.49,334.793 353.657,336.127 353.5,337.5 Z"/></g>
<g><path style="opacity:0.773" fill="#eddbc8" d="M 219.5,332.5 C 222.771,334.367 223.771,337.034 222.5,340.5C 223.167,341.167 223.833,341.833 224.5,342.5C 223.398,343.176 222.398,343.842 221.5,344.5C 220.503,344.53 219.836,344.03 219.5,343C 221.99,339.468 221.99,335.968 219.5,332.5 Z"/></g>
<g><path style="opacity:0.948" fill="#e8cc90" d="M 218.5,332.5 C 218.833,332.5 219.167,332.5 219.5,332.5C 221.99,335.968 221.99,339.468 219.5,343C 219.836,344.03 220.503,344.53 221.5,344.5C 222.85,345.824 222.683,346.824 221,347.5C 219.374,346.711 217.874,345.711 216.5,344.5C 215.893,344.624 215.56,344.957 215.5,345.5C 214.533,346.806 213.199,347.473 211.5,347.5C 211.334,343.154 211.501,338.821 212,334.5C 214.277,333.883 216.444,333.216 218.5,332.5 Z M 215.5,337.5 C 218.001,337.511 218.168,338.178 216,339.5C 215.536,338.906 215.369,338.239 215.5,337.5 Z"/></g>
<g><path style="opacity:0.208" fill="#ecdbc4" d="M 303.5,337.5 C 304.833,337.5 306.167,337.5 307.5,337.5C 304.742,338.967 305.075,339.633 308.5,339.5C 308.81,342.713 308.477,345.713 307.5,348.5C 307.5,345.833 307.5,343.167 307.5,340.5C 305.5,340.5 303.5,340.5 301.5,340.5C 301.831,342.322 302.498,343.989 303.5,345.5C 301.5,345.5 299.5,345.5 297.5,345.5C 297.5,344.833 297.5,344.167 297.5,343.5C 298.423,344.303 299.423,344.47 300.5,344C 299.028,340.448 300.362,338.782 304.5,339C 303.944,338.617 303.611,338.117 303.5,337.5 Z"/></g>
<g><path style="opacity:1" fill="#e8cb8e" d="M 245.5,337.5 C 246.209,338.404 247.209,338.737 248.5,338.5C 248.784,340.415 248.451,342.081 247.5,343.5C 246.5,343.5 245.5,343.5 244.5,343.5C 244.5,344.833 244.5,346.167 244.5,347.5C 243.5,347.5 242.5,347.5 241.5,347.5C 241.5,342.833 241.5,338.167 241.5,333.5C 242.568,332.566 243.901,332.232 245.5,332.5C 245.5,334.167 245.5,335.833 245.5,337.5 Z"/></g>
<g><path style="opacity:0.973" fill="#e9cd95" d="M 147.5,333.5 C 149.341,335.849 150.674,338.515 151.5,341.5C 151.706,343.549 152.539,343.883 154,342.5C 154.884,344.641 154.384,346.307 152.5,347.5C 150.867,345.497 148.867,344.164 146.5,343.5C 146.5,344.833 146.5,346.167 146.5,347.5C 145.5,347.5 144.5,347.5 143.5,347.5C 143.737,346.209 143.404,345.209 142.5,344.5C 142.5,343.833 142.5,343.167 142.5,342.5C 143.477,339.713 143.81,336.713 143.5,333.5C 144.833,333.5 146.167,333.5 147.5,333.5 Z"/></g>
<g><path style="opacity:0.008" fill="#fefffe" d="M 252.5,342.5 C 251.833,341.167 251.833,341.167 252.5,342.5 Z"/></g>
<g><path style="opacity:0.012" fill="#fefffe" d="M 252.5,342.5 C 253.833,343.167 253.833,343.167 252.5,342.5 Z"/></g>
<g><path style="opacity:0.922" fill="#e4ca93" d="M 326.5,334.5 C 327.5,334.5 328.5,334.5 329.5,334.5C 329.5,338.833 329.5,343.167 329.5,347.5C 328.5,347.5 327.5,347.5 326.5,347.5C 326.5,343.167 326.5,338.833 326.5,334.5 Z"/></g>
<g><path style="opacity:0.718" fill="#e8d7ba" d="M 155.5,336.5 C 156.525,340.427 157.192,344.427 157.5,348.5C 156.732,347.737 156.232,346.737 156,345.5C 152.716,350.968 150.049,350.634 148,344.5C 147.506,346.134 147.34,347.801 147.5,349.5C 143.5,350.167 141.833,348.5 142.5,344.5C 143.404,345.209 143.737,346.209 143.5,347.5C 144.5,347.5 145.5,347.5 146.5,347.5C 146.5,346.167 146.5,344.833 146.5,343.5C 148.867,344.164 150.867,345.497 152.5,347.5C 154.384,346.307 154.884,344.641 154,342.5C 152.539,343.883 151.706,343.549 151.5,341.5C 152.404,340.791 152.737,339.791 152.5,338.5C 153.778,338.218 154.778,337.551 155.5,336.5 Z"/></g>
<g><path style="opacity:0.969" fill="#e6cd8a" d="M 185.5,341.5 C 185.833,342.833 186.167,342.833 186.5,341.5C 189.68,341.176 190.847,342.51 190,345.5C 187.395,344.186 184.895,344.186 182.5,345.5C 181.849,346.091 181.182,346.757 180.5,347.5C 179.818,346.757 179.151,346.091 178.5,345.5C 178.5,344.833 178.833,344.5 179.5,344.5C 180.885,343.426 182.051,342.093 183,340.5C 183.671,341.252 184.504,341.586 185.5,341.5 Z"/></g>
<g><path style="opacity:0.31" fill="#e6dcc5" d="M 218.5,332.5 C 216.444,333.216 214.277,333.883 212,334.5C 211.501,338.821 211.334,343.154 211.5,347.5C 213.199,347.473 214.533,346.806 215.5,345.5C 215.65,349.161 214.15,350.161 211,348.5C 210.333,343.167 210.333,337.833 211,332.5C 213,331.833 215,331.167 217,330.5C 217.278,331.416 217.778,332.082 218.5,332.5 Z"/></g>
<g><path style="opacity:0.004" fill="#fefffe" d="M 394.5,343.5 C 395.833,344.167 395.833,344.167 394.5,343.5 Z"/></g>
<g><path style="opacity:0.886" fill="#e9c98e" d="M 157.5,348.5 C 157.192,344.427 156.525,340.427 155.5,336.5C 156.82,335.058 158.486,334.392 160.5,334.5C 160.666,338.846 160.499,343.179 160,347.5C 159.329,348.252 158.496,348.586 157.5,348.5 Z"/></g>
<g><path style="opacity:0.557" fill="#ecd9c2" d="M 349.5,337.5 C 349.5,340.833 349.5,344.167 349.5,347.5C 352.247,347.813 354.914,347.48 357.5,346.5C 355.955,345.548 354.288,345.215 352.5,345.5C 352.194,342.615 352.527,339.948 353.5,337.5C 353.5,339.833 353.5,342.167 353.5,344.5C 355.5,344.5 357.5,344.5 359.5,344.5C 359.714,346.144 359.38,347.644 358.5,349C 355.183,349.498 351.85,349.665 348.5,349.5C 347.886,345.865 347.552,342.198 347.5,338.5C 348.167,338.167 348.833,337.833 349.5,337.5 Z"/></g>
<g><path style="opacity:0.573" fill="#ead9c6" d="M 178.5,345.5 C 179.151,346.091 179.818,346.757 180.5,347.5C 181.182,346.757 181.849,346.091 182.5,345.5C 184.735,345.205 186.735,345.539 188.5,346.5C 186.801,346.34 185.134,346.506 183.5,347C 181.557,349.949 179.557,350.116 177.5,347.5C 177.863,346.817 178.196,346.15 178.5,345.5 Z"/></g>
<g><path style="opacity:0.984" fill="#e7cb82" d="M 297.5,345.5 C 299.5,345.5 301.5,345.5 303.5,345.5C 304.675,345.281 305.675,345.614 306.5,346.5C 303.216,347.657 299.882,347.824 296.5,347C 295.288,345.893 295.621,345.393 297.5,345.5 Z"/></g>
<g><path style="opacity:0.745" fill="#e1d4c2" d="M 215.5,345.5 C 215.56,344.957 215.893,344.624 216.5,344.5C 217.874,345.711 219.374,346.711 221,347.5C 222.683,346.824 222.85,345.824 221.5,344.5C 222.5,344.5 223.5,344.5 224.5,344.5C 224.33,345.822 224.663,346.989 225.5,348C 224.57,348.991 223.404,349.491 222,349.5C 219.169,349.155 217.003,347.822 215.5,345.5 Z"/></g>
<g><path style="opacity:0.902" fill="#e6d8b8" d="M 241.5,333.5 C 241.5,338.167 241.5,342.833 241.5,347.5C 242.5,347.5 243.5,347.5 244.5,347.5C 244.5,346.167 244.5,344.833 244.5,343.5C 245.5,343.5 246.5,343.5 247.5,343.5C 247.989,346.324 249.656,347.657 252.5,347.5C 252.5,346.5 252.5,345.5 252.5,344.5C 255.084,345.048 256.084,346.715 255.5,349.5C 250.867,350.542 247.701,348.875 246,344.5C 245.506,346.134 245.34,347.801 245.5,349.5C 243.856,349.714 242.356,349.38 241,348.5C 240.184,343.316 240.35,338.316 241.5,333.5 Z"/></g>
<g><path style="opacity:0.97" fill="#e8ca91" d="M 397.5,332.5 C 398.5,332.5 399.5,332.5 400.5,332.5C 401.718,333.161 403.051,333.828 404.5,334.5C 401.741,335.049 399.741,335.716 398.5,336.5C 396.78,337.308 395.113,338.308 393.5,339.5C 392.169,347.472 391.502,355.806 391.5,364.5C 391.667,372.833 391.833,381.167 392,389.5C 392.278,390.416 392.778,391.082 393.5,391.5C 393.5,394.167 393.5,396.833 393.5,399.5C 392.719,396.673 391.386,394.007 389.5,391.5C 390.32,373.877 390.82,356.21 391,338.5C 393.071,337.897 394.238,336.564 394.5,334.5C 396.199,334.66 397.866,334.494 399.5,334C 398.584,333.722 397.918,333.222 397.5,332.5 Z"/></g>
<g><path style="opacity:0.212" fill="#e8dbc0" d="M 393.5,339.5 C 392.247,356.816 392.247,374.149 393.5,391.5C 392.778,391.082 392.278,390.416 392,389.5C 391.833,381.167 391.667,372.833 391.5,364.5C 391.502,355.806 392.169,347.472 393.5,339.5 Z"/></g>
<g><path style="opacity:0.937" fill="#e6d2b6" d="M 256.5,357.5 C 255.631,359.717 255.298,362.05 255.5,364.5C 254.275,363.063 253.275,361.396 252.5,359.5C 253.32,357.889 254.654,357.222 256.5,357.5 Z"/></g>
<g><path style="opacity:0.004" fill="#fefffe" d="M 297.5,359.5 C 298.833,360.167 298.833,360.167 297.5,359.5 Z"/></g>
<g><path style="opacity:1" fill="#e8d4ae" d="M 257.5,357.5 C 261.182,357.335 264.848,357.501 268.5,358C 270.829,360.826 272.496,363.992 273.5,367.5C 270.187,365.673 268.187,362.84 267.5,359C 264.083,359.264 260.749,358.764 257.5,357.5 Z"/></g>
<g><path style="opacity:0.004" fill="#fefffe" d="M 478.5,364.5 C 479.833,365.167 479.833,365.167 478.5,364.5 Z"/></g>
<g><path style="opacity:1" fill="#edc982" d="M 256.5,357.5 C 256.833,357.5 257.167,357.5 257.5,357.5C 260.749,358.764 264.083,359.264 267.5,359C 268.187,362.84 270.187,365.673 273.5,367.5C 273.427,369.027 274.094,370.027 275.5,370.5C 277.218,372.223 278.551,374.223 279.5,376.5C 281.284,378.948 282.618,381.615 283.5,384.5C 284.5,384.5 285.5,384.5 286.5,384.5C 286.5,385.5 286.5,386.5 286.5,387.5C 289.975,387.994 292.642,389.661 294.5,392.5C 294.5,394.167 294.5,395.833 294.5,397.5C 296.331,398.052 297.997,398.052 299.5,397.5C 300.386,398.325 300.719,399.325 300.5,400.5C 302.993,400.131 303.66,400.797 302.5,402.5C 298.904,401.2 295.237,400.2 291.5,399.5C 288.449,397.302 285.449,394.802 282.5,392C 281.207,391.51 279.873,391.343 278.5,391.5C 276.485,387.319 273.318,384.319 269,382.5C 264.913,377.42 261.246,372.087 258,366.5C 257.329,365.748 256.496,365.414 255.5,365.5C 255.5,365.167 255.5,364.833 255.5,364.5C 255.298,362.05 255.631,359.717 256.5,357.5 Z"/></g>
<g><path style="opacity:0.827" fill="#e7d3ae" d="M 255.5,365.5 C 256.496,365.414 257.329,365.748 258,366.5C 261.246,372.087 264.913,377.42 269,382.5C 273.318,384.319 276.485,387.319 278.5,391.5C 268.54,384.948 260.873,376.282 255.5,365.5 Z"/></g>
<g><path style="opacity:0.561" fill="#efddbf" d="M 397.5,332.5 C 397.918,333.222 398.584,333.722 399.5,334C 397.866,334.494 396.199,334.66 394.5,334.5C 388.5,334.5 382.5,334.5 376.5,334.5C 378.7,351.164 379.033,367.831 377.5,384.5C 376.609,385.11 375.609,385.443 374.5,385.5C 374.783,384.711 375.283,384.044 376,383.5C 376.167,376.333 376.333,369.167 376.5,362C 376.558,352.374 376.058,342.874 375,333.5C 382.413,332.519 389.913,332.186 397.5,332.5 Z"/></g>
<g><path style="opacity:0.102" fill="#eee1ce" d="M 273.5,367.5 C 274.906,367.973 275.573,368.973 275.5,370.5C 274.094,370.027 273.427,369.027 273.5,367.5 Z"/></g>
<g><path style="opacity:0.004" fill="#fefffe" d="M 357.5,371.5 C 358.833,372.167 358.833,372.167 357.5,371.5 Z"/></g>
<g><path style="opacity:0.004" fill="#fefffe" d="M 79.5,381.5 C 80.8333,382.167 80.8333,382.167 79.5,381.5 Z"/></g>
<g><path style="opacity:0.004" fill="#fefffe" d="M 4.5,382.5 C 5.83333,383.167 5.83333,383.167 4.5,382.5 Z"/></g>
<g><path style="opacity:0.004" fill="#fefffe" d="M 15.5,382.5 C 16.8333,383.167 16.8333,383.167 15.5,382.5 Z"/></g>
<g><path style="opacity:1" fill="#ead4ae" d="M 279.5,376.5 C 289.232,387.57 301.232,394.903 315.5,398.5C 308.246,398.203 301.246,396.203 294.5,392.5C 292.642,389.661 289.975,387.994 286.5,387.5C 286.5,386.5 286.5,385.5 286.5,384.5C 285.5,384.5 284.5,384.5 283.5,384.5C 282.618,381.615 281.284,378.948 279.5,376.5 Z"/></g>
<g><path style="opacity:0.004" fill="#fefffe" d="M 245.5,384.5 C 246.833,385.167 246.833,385.167 245.5,384.5 Z"/></g>
<g><path style="opacity:1" fill="#ead1aa" d="M 278.5,391.5 C 279.873,391.343 281.207,391.51 282.5,392C 285.449,394.802 288.449,397.302 291.5,399.5C 287.577,398.205 283.91,396.372 280.5,394C 279.619,393.292 278.953,392.458 278.5,391.5 Z"/></g>
<g><path style="opacity:1" fill="#eec882" d="M 377.5,384.5 C 376.793,386.134 375.627,387.468 374,388.5C 372.991,390.025 372.491,391.692 372.5,393.5C 373.5,393.5 374.5,393.5 375.5,393.5C 374.833,394.5 374.167,395.5 373.5,396.5C 365.838,398.72 358.504,401.72 351.5,405.5C 336.125,406.997 320.792,406.664 305.5,404.5C 304.71,403.599 303.71,402.932 302.5,402.5C 303.66,400.797 302.993,400.131 300.5,400.5C 300.719,399.325 300.386,398.325 299.5,397.5C 297.997,398.052 296.331,398.052 294.5,397.5C 294.5,395.833 294.5,394.167 294.5,392.5C 301.246,396.203 308.246,398.203 315.5,398.5C 316.167,398.5 316.5,398.833 316.5,399.5C 320.782,401.733 325.448,402.733 330.5,402.5C 344.13,401.796 356.797,398.129 368.5,391.5C 370.533,389.493 372.533,387.493 374.5,385.5C 375.609,385.443 376.609,385.11 377.5,384.5 Z"/></g>
<g><path style="opacity:0.004" fill="#fefffe" d="M 417.5,396.5 C 418.833,397.167 418.833,397.167 417.5,396.5 Z"/></g>
<g><path style="opacity:0.812" fill="#ebd7ae" d="M 374.5,385.5 C 372.533,387.493 370.533,389.493 368.5,391.5C 356.797,398.129 344.13,401.796 330.5,402.5C 325.448,402.733 320.782,401.733 316.5,399.5C 337.788,402.394 357.121,397.727 374.5,385.5 Z"/></g>
<g><path style="opacity:0.863" fill="#e9d8b6" d="M 291.5,399.5 C 295.237,400.2 298.904,401.2 302.5,402.5C 303.71,402.932 304.71,403.599 305.5,404.5C 300.362,403.921 295.695,402.254 291.5,399.5 Z"/></g>
<g><path style="opacity:1" fill="#e7d3ab" d="M 383.5,405.5 C 381.688,401.96 380.021,398.293 378.5,394.5C 376.925,395.456 375.258,396.123 373.5,396.5C 374.167,395.5 374.833,394.5 375.5,393.5C 377.282,392.28 379.282,391.614 381.5,391.5C 382.167,396.167 382.833,400.833 383.5,405.5 Z"/></g>
<g><path style="opacity:0.737" fill="#ebd3ac" d="M 373.5,396.5 C 367.053,401.433 359.72,404.433 351.5,405.5C 358.504,401.72 365.838,398.72 373.5,396.5 Z"/></g>
<g><path style="opacity:0.963" fill="#e8d5af" d="M 305.5,404.5 C 320.792,406.664 336.125,406.997 351.5,405.5C 336.065,409.71 320.732,409.376 305.5,404.5 Z"/></g>
<g><path style="opacity:0.004" fill="#fefffe" d="M 360.5,408.5 C 361.833,409.167 361.833,409.167 360.5,408.5 Z"/></g>
<g><path style="opacity:0.553" fill="#e7d5af" d="M 383.5,405.5 C 384.167,405.5 384.833,405.5 385.5,405.5C 386.111,408.721 387.278,411.721 389,414.5C 391.41,417.397 393.577,420.397 395.5,423.5C 389.547,418.866 385.547,412.866 383.5,405.5 Z"/></g>
<g><path style="opacity:0.004" fill="#fefffe" d="M 409.5,409.5 C 410.833,410.167 410.833,410.167 409.5,409.5 Z"/></g>
<g><path style="opacity:0.004" fill="#fefffe" d="M 315.5,420.5 C 316.833,421.167 316.833,421.167 315.5,420.5 Z"/></g>
<g><path style="opacity:0.004" fill="#fefffe" d="M 430.5,422.5 C 431.833,423.167 431.833,423.167 430.5,422.5 Z"/></g>
<g><path style="opacity:1" fill="#edc983" d="M 395.5,403.5 C 397.803,408.106 400.136,412.773 402.5,417.5C 408.959,423.897 416.292,429.064 424.5,433C 432.912,434.781 441.412,435.947 450,436.5C 452.61,436.467 454.777,435.8 456.5,434.5C 457.167,434.5 457.833,434.5 458.5,434.5C 461.977,435.323 465.644,435.823 469.5,436C 468.944,436.383 468.611,436.883 468.5,437.5C 468.5,438.167 468.167,438.5 467.5,438.5C 467.083,437.876 466.416,437.543 465.5,437.5C 456.041,439.287 446.708,440.953 437.5,442.5C 436.833,442.5 436.167,442.5 435.5,442.5C 434.77,440.955 433.437,440.122 431.5,440C 428.518,439.502 425.518,439.335 422.5,439.5C 414.857,435.54 407.19,431.54 399.5,427.5C 397.833,426.5 396.5,425.167 395.5,423.5C 393.577,420.397 391.41,417.397 389,414.5C 387.278,411.721 386.111,408.721 385.5,405.5C 385.685,403.804 386.519,402.471 388,401.5C 388.87,402.108 389.37,402.941 389.5,404C 387.847,406.411 388.513,407.578 391.5,407.5C 391.337,409.857 391.503,412.19 392,414.5C 392.196,416.286 393.029,417.619 394.5,418.5C 394.357,413.524 394.69,408.524 395.5,403.5 Z"/></g>
<g><path style="opacity:0.004" fill="#fefffe" d="M 58.5,428.5 C 59.8333,429.167 59.8333,429.167 58.5,428.5 Z"/></g>
<g><path style="opacity:0.945" fill="#e9d3ac" d="M 393.5,391.5 C 402.182,423.373 423.182,437.707 456.5,434.5C 454.777,435.8 452.61,436.467 450,436.5C 441.412,435.947 432.912,434.781 424.5,433C 416.292,429.064 408.959,423.897 402.5,417.5C 400.136,412.773 397.803,408.106 395.5,403.5C 394.833,402.167 394.167,400.833 393.5,399.5C 393.5,396.833 393.5,394.167 393.5,391.5 Z"/></g>
<g><path style="opacity:1" fill="#e7d1a4" d="M 399.5,427.5 C 407.19,431.54 414.857,435.54 422.5,439.5C 413.529,437.849 405.862,433.849 399.5,427.5 Z"/></g>
<g><path style="opacity:0.953" fill="#e5d4b6" d="M 468.5,437.5 C 468.611,436.883 468.944,436.383 469.5,436C 465.644,435.823 461.977,435.323 458.5,434.5C 463.198,434.29 467.864,434.124 472.5,434C 473.641,434.741 473.641,435.575 472.5,436.5C 471.311,437.429 469.978,437.762 468.5,437.5 Z"/></g>
<g><path style="opacity:0.004" fill="#fefffe" d="M 178.5,435.5 C 179.833,436.167 179.833,436.167 178.5,435.5 Z"/></g>
<g><path style="opacity:0.988" fill="#edd5b5" d="M 422.5,439.5 C 425.518,439.335 428.518,439.502 431.5,440C 433.437,440.122 434.77,440.955 435.5,442.5C 430.951,441.955 426.618,440.955 422.5,439.5 Z"/></g>
<g><path style="opacity:0.761" fill="#f0d9bb" d="M 467.5,438.5 C 457.658,440.927 447.658,442.26 437.5,442.5C 446.708,440.953 456.041,439.287 465.5,437.5C 466.416,437.543 467.083,437.876 467.5,438.5 Z"/></g>
<g><path style="opacity:0.004" fill="#fefffe" d="M 82.5,447.5 C 83.8333,448.167 83.8333,448.167 82.5,447.5 Z"/></g>
<g><path style="opacity:0.004" fill="#fefffe" d="M 458.5,447.5 C 459.833,448.167 459.833,448.167 458.5,447.5 Z"/></g>
<g><path style="opacity:0.004" fill="#fefffe" d="M 4.5,449.5 C 5.83333,450.167 5.83333,450.167 4.5,449.5 Z"/></g>
<g><path style="opacity:0.004" fill="#fefffe" d="M 442.5,449.5 C 443.833,450.167 443.833,450.167 442.5,449.5 Z"/></g>
<g><path style="opacity:0.004" fill="#fefffe" d="M 200.5,456.5 C 201.833,457.167 201.833,457.167 200.5,456.5 Z"/></g>
<g><path style="opacity:0.004" fill="#fefffe" d="M 281.5,474.5 C 282.833,475.167 282.833,475.167 281.5,474.5 Z"/></g>
<g><path style="opacity:0.004" fill="#fefffe" d="M 116.5,477.5 C 117.833,478.167 117.833,478.167 116.5,477.5 Z"/></g>
<g><path style="opacity:0.004" fill="#fefffe" d="M 486.5,487.5 C 487.833,488.167 487.833,488.167 486.5,487.5 Z"/></g>
</svg>
